<?xml version="1.0" encoding="UTF-8"?>
<svg id="Ebene_2" xmlns="http://www.w3.org/2000/svg" version="1.1" viewBox="0 0 3065.3 874.4">
  <!-- Generator: Adobe Illustrator 29.8.4, SVG Export Plug-In . SVG Version: 2.1.1 Build 6)  -->
  <defs>
    <style>
      .st0 {
        fill: #f4f4f4;
      }
    </style>
  </defs>
  <g id="Ebene_2-2">
    <g id="Ebene_1-2">
      <g>
        <path class="st0" d="M823.4,822.5c-25.9,31.9-66.9,51.5-108.2,51.9H135.5C60.1,871,4.8,812.4.4,737.8V161c0,0,1.3-5.6,1.3-5.6,36-23.3,74.7-43.1,116.3-54.3,26.3-7.1,59.9-14.3,86.9-15.7,15.2-.8,43.2,2.8,56.2-.6,6-1.6,29.1-19.4,37-24,22.3-13.2,71.9-37.7,96.8-40.5,7-.8,15.1.4,22.2,0,44.3-2.2,95.7-3.8,140-1.5,45.4,2.3,111.7,28,154.9,44.8,56.2,21.8,125.7,43.2,142.5,108.4v570c-1.6,30-12.4,57.3-31.2,80.5h0ZM532.8,78.5c-1.3-1.1,7.8-28.7,6.2-33.3l-14.9,32.9c-3.7,4.3-52.5,2.8-61.4,3.1-26.1.7-52.7,2.5-79,1.4l-21.4,2.8c19.2.4,38.4-.4,57.6,0,48.4.9,97,4.8,145.5,1.4,17.1-1.2,33.7-6.1,47.8-15.9l-35.4,6.2-45,1.4h0ZM618.8,67.5c-2-1-3.7.9-2.8,1.4,2,1,3.7-.9,2.8-1.4ZM269.4,163.1c3.7-3.6-16.8-23.5-20.1-26.3-23.1-19.1-49.4-24.2-79.1-22.3-21.2,1.4-33.4,11.4-50.5,22.3-.1,2-.7,3.3,1.9,2.6,7.5-2.1,16.1-7.9,24.1-10.6,35.9-11.6,67.2-5,96.6,17.7,5,3.8,10.6,11.4,16.1,14.4,2.1,1.1,9.8,3.4,11,2.2h0ZM506.5,161.7h117.2c3.3,0,24.2-20.1,30.2-23.8,27.8-17.3,64.2-18.5,94.2-6.3,8.1,3.3,15.8,9.9,23.9,13.5-11-19.7-39.2-29.2-61-30.5-26.5-1.6-44.9,1.4-66.9,16.4-5.7,3.9-19.4,18.5-23.5,19.4-13.8,3.1-32.4,1.3-46.8,3.1l-67.3,8.3h0ZM257.7,191.4c-61.3-51.7-116-41.4-133.5,40.7-2.9,144.6-2.9,290,0,434.6,19.5,72.4,64.6,89.8,122.4,38.5,43.3-38.5,80.9-86.4,124.1-125.5,5.6-7.6,12.6-10,8.6-21.1-24.7-37.5-46.3-77-68.5-115.9-6-10.6-15.1-19.3-21.6-31-1.4-2.5-4.9-7.2-3.7-10.1l142,136.7c63.5,59.4,122.7,125.3,191,179.1,51.6,29.9,98.8,19.2,112.4-42.4,3-153,2.6-306.8.2-459.8-20.8-73.5-78.2-63.7-126.8-21.7-37.9,41.4-82.8,79.6-120,121.3-3.9,4.4-10.9,10.3-9.4,16.3,21.5,35.6,43.4,71.2,65.7,106.3,9,14.2,21.2,29.1,28.1,44,.6,1.3,3,3.6.9,4.6-14.2-10.9-26-24.9-38.8-37.4-93.7-80.6-179-178-273-257.4h0Z"/>
        <path class="st0" d="M349.8,3.7c.7,3.9-.9,2.3-3,3.1-13.3,5.2-26.4,11.1-39,17.9-11,6-42.5,29.2-50.5,31.3-8.2,2.2-25.9-.3-35.7.3-67.7,4.3-143,25.7-198.9,64.6-5.8,4-12.4,11.3-17.4,14.5-1.2.8-4.1,2.2-4.9,1.3-2.2-2.2,5-32.1,6.6-37.1C25.5,39,79.4,5.2,141.1,2.2c58.1-2.8,133.5-3.1,191.5,0,5.6.3,11.3,2.5,17.3,1.5h0Z"/>
        <path class="st0" d="M824,55h-40.9c-8.8,0-66.1-24.8-80-29.5-21.9-7.4-44.9-15.1-67.7-19-.2-3.3-.4-2.4,2.1-2.8,22.9-2.9,57.2-2.8,80.5-1.5,40.6,2.3,81.7,19.7,106,52.8h0Z"/>
        <path class="st0" d="M850.3,104.9c-2,2.5-3.1-1.9-3.6-2.6-1.8-2.6-8.6-12.9-6.1-15.4,4.5-4.6,10.4,17.1,9.7,18Z"/>
      </g>
    </g>
    <g>
      <path class="st0" d="M1111.3,471.7c17.6,0,49.5,2.5,46.4,28.2l-27.6,222.6h-112.9l70.2-570.6h150.5l-12.5,100.3h-37.6l-13.2,106.6h25.1l-13.8,112.9h-74.6Z"/>
      <path class="st0" d="M1293.2,722.5h-112.9l82.8-570.6h235.2l-64,570.6h-112.9l28.2-250.8h-72.1c17.6,0,53.9,2.5,50.2,28.2l-34.5,222.6h0ZM1360.3,371.4l13.8-119.1h-12.5l-18.8,119.1h17.6Z"/>
      <path class="st0" d="M1553.4,471.7c17.6,0,49.5,2.5,46.4,28.2l-27.6,222.6h-112.9l70.2-570.6h112.9l-27,219.5h15.7l27-219.5h112.9l-70.2,570.6h-112.9l30.7-250.8h-65.2Z"/>
      <path class="st0" d="M1845,722.5h-112.9l70.2-570.6h159.9c48.9,0,77.1,32.6,71.5,81.5l-16.3,132.9c-2.5,17.6-10,45.8-32.6,48.9,11.9.6,12.5,31.4,11.3,48.9l-19.4,258.4h-112.9l18.8-257.1h-55.8c17.6,0,49.5,2.5,46.4,28.2l-28.2,228.9h0ZM1890.8,351.3c-.6,4.4,1.9,7.5,6.3,7.5s8.8-3.1,9.4-7.5l11.3-91.5c0-4.4-2.5-7.5-6.9-7.5s-8.8,3.1-8.8,7.5l-11.3,91.5Z"/>
      <path class="st0" d="M2472.7,722.5h-146.1l30.1-470.3h-10.7l-58.9,470.3h-112.9l71.5-570.6h218.2l-57.1,470.3h16.9l58.3-470.3h218.2l-69,570.6h-112.9l56.4-470.3h-10.7l-91.6,470.3h0Z"/>
      <path class="st0" d="M2845.8,151.9l-70.2,570.6h-112.9l70.2-570.6h112.9Z"/>
      <path class="st0" d="M2965.6,252.2c17.6,0,49.5,2.5,46.4,28.2l-54.6,442.1h-112.9l57.7-470.3h-37.6l12.5-100.3h188.1l-12.5,100.3h-87.2,0Z"/>
    </g>
  </g>
</svg>