<?xml version="1.0" encoding="UTF-8"?>
<svg id="Ebene_2" data-name="Ebene 2" xmlns="http://www.w3.org/2000/svg" viewBox="0 0 256 256">
  <defs>
    <style>
      .cls-1 {
        fill: #f4f4f4;
      }

      .cls-2 {
        fill: #1a1e35;
      }
    </style>
  </defs>
  <g id="Ebene_1-2" data-name="Ebene 1">
    <rect class="cls-2" width="256" height="256"/>
    <g id="Ebene_2-2" data-name="Ebene 2-2">
      <g id="uuid-6f76f9c0-5a14-4c2d-b1a9-94624f1078e6" data-name="Ebene 1-2">
        <g>
          <path class="cls-1" d="M196.39,170.21c-4.46,5.5-11.53,8.88-18.65,8.95h-99.94c-13-.59-22.53-10.69-23.29-23.55V56.17l.22-.97c6.21-4.02,12.88-7.43,20.05-9.36,4.53-1.22,10.33-2.47,14.98-2.71,2.62-.14,7.45.48,9.69-.1,1.03-.28,5.02-3.34,6.38-4.14,3.84-2.28,12.39-6.5,16.69-6.98,1.21-.14,2.6.07,3.83,0,7.64-.38,16.5-.66,24.13-.26,7.83.4,19.26,4.83,26.7,7.72,9.69,3.76,21.67,7.45,24.57,18.69v98.26c-.28,5.17-2.14,9.88-5.38,13.88h.02ZM146.29,41.95c-.22-.19,1.34-4.95,1.07-5.74l-2.57,5.67c-.64.74-9.05.48-10.58.53-4.5.12-9.09.43-13.62.24l-3.69.48c3.31.07,6.62-.07,9.93,0,8.34.16,16.72.83,25.08.24,2.95-.21,5.81-1.05,8.24-2.74l-6.1,1.07-7.76.24h0ZM161.12,40.05c-.34-.17-.64.16-.48.24.34.17.64-.16.48-.24ZM100.88,56.53c.64-.62-2.9-4.05-3.47-4.53-3.98-3.29-8.52-4.17-13.64-3.84-3.65.24-5.76,1.97-8.71,3.84-.02.34-.12.57.33.45,1.29-.36,2.78-1.36,4.15-1.83,6.19-2,11.58-.86,16.65,3.05.86.66,1.83,1.97,2.78,2.48.36.19,1.69.59,1.9.38h0ZM141.76,56.29h20.2c.57,0,4.17-3.47,5.21-4.1,4.79-2.98,11.07-3.19,16.24-1.09,1.4.57,2.72,1.71,4.12,2.33-1.9-3.4-6.76-5.03-10.52-5.26-4.57-.28-7.74.24-11.53,2.83-.98.67-3.34,3.19-4.05,3.34-2.38.53-5.59.22-8.07.53l-11.6,1.43h0v-.02ZM98.86,61.41c-10.57-8.91-20-7.14-23.01,7.02-.5,24.93-.5,49.99,0,74.92,3.36,12.48,11.14,15.48,21.1,6.64,7.46-6.64,13.95-14.89,21.39-21.64.97-1.31,2.17-1.72,1.48-3.64-4.26-6.46-7.98-13.27-11.81-19.98-1.03-1.83-2.6-3.33-3.72-5.34-.24-.43-.84-1.24-.64-1.74l24.48,23.57c10.95,10.24,21.15,21.6,32.93,30.88,8.9,5.15,17.03,3.31,19.38-7.31.52-26.38.45-52.89.03-79.27-3.59-12.67-13.48-10.98-21.86-3.74-6.53,7.14-14.27,13.72-20.69,20.91-.67.76-1.88,1.78-1.62,2.81,3.71,6.14,7.48,12.27,11.33,18.33,1.55,2.45,3.65,5.02,4.84,7.59.1.22.52.62.16.79-2.45-1.88-4.48-4.29-6.69-6.45-16.15-13.89-30.86-30.69-47.06-44.37h0l-.02.03Z"/>
          <path class="cls-1" d="M114.74,29.05c.12.67-.16.4-.52.53-2.29.9-4.55,1.91-6.72,3.09-1.9,1.03-7.33,5.03-8.71,5.4-1.41.38-4.46-.05-6.15.05-11.67.74-24.65,4.43-34.29,11.14-1,.69-2.14,1.95-3,2.5-.21.14-.71.38-.84.22-.38-.38.86-5.53,1.14-6.4,3.19-10.45,12.48-16.27,23.12-16.79,10.02-.48,23.01-.53,33.01,0,.97.05,1.95.43,2.98.26h-.02Z"/>
          <path class="cls-1" d="M196.49,37.89h-7.05c-1.52,0-11.4-4.28-13.79-5.09-3.78-1.28-7.74-2.6-11.67-3.28-.03-.57-.07-.41.36-.48,3.95-.5,9.86-.48,13.88-.26,7,.4,14.08,3.4,18.27,9.1h0Z"/>
          <path class="cls-1" d="M201.02,46.5c-.34.43-.53-.33-.62-.45-.31-.45-1.48-2.22-1.05-2.65.78-.79,1.79,2.95,1.67,3.1h0Z"/>
        </g>
      </g>
    </g>
    <g>
      <path class="cls-1" d="M61.27,209.56c1.27,0,3.56.18,3.34,2.03l-1.98,16h-8.12l5.05-41.02h10.82l-.9,7.21h-2.7l-.95,7.66h1.8l-.99,8.12h-5.36Z"/>
      <path class="cls-1" d="M74.35,227.59h-8.12l5.95-41.02h16.91l-4.6,41.02h-8.12l2.03-18.03h-5.18c1.27,0,3.88.18,3.61,2.03l-2.48,16h0ZM79.18,202.35l.99-8.56h-.9l-1.35,8.56h1.27,0Z"/>
      <path class="cls-1" d="M93.06,209.56c1.27,0,3.56.18,3.34,2.03l-1.98,16h-8.12l5.05-41.02h8.12l-1.94,15.78h1.13l1.94-15.78h8.12l-5.05,41.02h-8.12l2.21-18.03h-4.69Z"/>
      <path class="cls-1" d="M114.02,227.59h-8.12l5.05-41.02h11.5c3.52,0,5.54,2.34,5.14,5.86l-1.17,9.55c-.18,1.27-.72,3.29-2.34,3.52.86.04.9,2.26.81,3.52l-1.39,18.58h-8.12l1.35-18.48h-4.01c1.27,0,3.56.18,3.34,2.03l-2.03,16.46h0ZM117.32,200.9c-.04.32.14.54.45.54s.63-.22.68-.54l.81-6.58c0-.32-.18-.54-.5-.54s-.63.22-.63.54l-.81,6.58Z"/>
      <path class="cls-1" d="M159.15,227.59h-10.5l2.16-33.81h-.77l-4.23,33.81h-8.12l5.14-41.02h15.69l-4.11,33.81h1.22l4.19-33.81h15.69l-4.96,41.02h-8.12l4.05-33.81h-.77l-6.59,33.81h.02Z"/>
      <path class="cls-1" d="M185.97,186.57l-5.05,41.02h-8.12l5.05-41.02h8.12Z"/>
      <path class="cls-1" d="M194.59,193.78c1.27,0,3.56.18,3.34,2.03l-3.93,31.78h-8.12l4.15-33.81h-2.7l.9-7.21h13.52l-.9,7.21h-6.27,0Z"/>
    </g>
  </g>
</svg>