<?xml version="1.0" encoding="UTF-8"?>
<svg id="Ebene_2" data-name="Ebene 2" xmlns="http://www.w3.org/2000/svg" viewBox="0 0 1200 630">
  <defs>
    <style>
      .cls-1 {
        fill: #f4f4f4;
      }

      .cls-2 {
        fill: #1a1e35;
      }
    </style>
  </defs>
  <g id="Ebene_1-2" data-name="Ebene 1">
    <rect class="cls-2" width="1200" height="630"/>
    <g id="Ebene_2-2" data-name="Ebene 2-2">
      <g id="uuid-77289a56-4f4c-4602-8455-1a2edb534dc7" data-name="Ebene 1-2">
        <g>
          <path class="cls-1" d="M770.26,420.22c-11.13,13.71-28.75,22.13-46.5,22.31h-249.14c-32.41-1.46-56.17-26.65-58.06-58.71v-247.9l.56-2.41c15.47-10.01,32.1-18.52,49.98-23.34,11.3-3.05,25.74-6.15,37.35-6.75,6.53-.34,18.57,1.2,24.15-.26,2.58-.69,12.51-8.34,15.9-10.31,9.58-5.67,30.9-16.2,41.6-17.41,3.01-.34,6.49.17,9.54,0,19.04-.95,41.13-1.63,60.17-.64,19.51.99,48.01,12.03,66.57,19.25,24.15,9.37,54.02,18.57,61.24,46.59v244.97c-.69,12.89-5.33,24.63-13.41,34.6h.04ZM645.37,100.46c-.56-.47,3.35-12.33,2.66-14.31l-6.4,14.14c-1.59,1.85-22.56,1.2-26.39,1.33-11.22.3-22.65,1.07-33.95.6l-9.2,1.2c8.25.17,16.5-.17,24.76,0,20.8.39,41.69,2.06,62.53.6,7.35-.52,14.48-2.62,20.54-6.83l-15.21,2.66-19.34.6h0ZM682.33,95.74c-.86-.43-1.59.39-1.2.6.86.43,1.59-.39,1.2-.6ZM532.16,136.82c1.59-1.55-7.22-10.1-8.64-11.3-9.93-8.21-21.23-10.4-34-9.58-9.11.6-14.35,4.9-21.7,9.58-.04.86-.3,1.42.82,1.12,3.22-.9,6.92-3.4,10.36-4.56,15.43-4.99,28.88-2.15,41.52,7.61,2.15,1.63,4.56,4.9,6.92,6.19.9.47,4.21,1.46,4.73.95h0ZM634.06,136.22h50.37c1.42,0,10.4-8.64,12.98-10.23,11.95-7.44,27.59-7.95,40.49-2.71,3.48,1.42,6.79,4.25,10.27,5.8-4.73-8.47-16.85-12.55-26.22-13.11-11.39-.69-19.3.6-28.75,7.05-2.45,1.68-8.34,7.95-10.1,8.34-5.93,1.33-13.92.56-20.11,1.33l-28.92,3.57h0v-.04ZM527.13,148.99c-26.35-22.22-49.85-17.79-57.38,17.49-1.25,62.15-1.25,124.64,0,186.78,8.38,31.12,27.76,38.59,52.6,16.55,18.61-16.55,34.77-37.13,53.34-53.94,2.41-3.27,5.42-4.3,3.7-9.07-10.62-16.12-19.9-33.09-29.44-49.81-2.58-4.56-6.49-8.29-9.28-13.32-.6-1.07-2.11-3.09-1.59-4.34l61.03,58.75c27.29,25.53,52.73,53.85,82.09,76.97,22.18,12.85,42.46,8.25,48.31-18.22,1.29-65.76,1.12-131.86.09-197.61-8.94-31.59-33.61-27.38-54.5-9.33-16.29,17.79-35.59,34.21-51.57,52.13-1.68,1.89-4.68,4.43-4.04,7.01,9.24,15.3,18.65,30.6,28.24,45.69,3.87,6.1,9.11,12.51,12.08,18.91.26.56,1.29,1.55.39,1.98-6.1-4.68-11.17-10.7-16.68-16.07-40.27-34.64-76.93-76.5-117.33-110.62h0l-.04.09Z"/>
          <path class="cls-1" d="M566.72,68.32c.3,1.68-.39.99-1.29,1.33-5.72,2.23-11.35,4.77-16.76,7.69-4.73,2.58-18.27,12.55-21.7,13.45-3.52.95-11.13-.13-15.34.13-29.1,1.85-61.46,11.05-85.48,27.76-2.49,1.72-5.33,4.86-7.48,6.23-.52.34-1.76.95-2.11.56-.95-.95,2.15-13.8,2.84-15.94,7.95-26.04,31.12-40.57,57.63-41.86,24.97-1.2,57.38-1.33,82.3,0,2.41.13,4.86,1.07,7.44.64h-.04Z"/>
          <path class="cls-1" d="M770.52,90.36h-17.58c-3.78,0-28.41-10.66-34.38-12.68-9.41-3.18-19.3-6.49-29.1-8.17-.09-1.42-.17-1.03.9-1.2,9.84-1.25,24.58-1.2,34.6-.64,17.45.99,35.11,8.47,45.56,22.69h0Z"/>
          <path class="cls-1" d="M781.82,111.81c-.86,1.07-1.33-.82-1.55-1.12-.77-1.12-3.7-5.54-2.62-6.62,1.93-1.98,4.47,7.35,4.17,7.74h0Z"/>
        </g>
      </g>
    </g>
    <g>
      <path class="cls-1" d="M433.42,518.33c3.15,0,8.87.45,8.32,5.05l-4.95,39.9h-20.24l12.58-102.27h26.97l-2.24,17.98h-6.74l-2.37,19.11h4.5l-2.47,20.24h-13.37Z"/>
      <path class="cls-1" d="M466.02,563.28h-20.24l14.84-102.27h42.16l-11.47,102.27h-20.24l5.05-44.95h-12.92c3.15,0,9.66.45,9,5.05l-6.18,39.9h0ZM478.05,500.35l2.47-21.35h-2.24l-3.37,21.35h3.15-.02Z"/>
      <path class="cls-1" d="M512.66,518.33c3.15,0,8.87.45,8.32,5.05l-4.95,39.9h-20.24l12.58-102.27h20.24l-4.84,39.34h2.81l4.84-39.34h20.24l-12.58,102.27h-20.24l5.5-44.95h-11.69Z"/>
      <path class="cls-1" d="M564.92,563.28h-20.24l12.58-102.27h28.66c8.76,0,13.82,5.84,12.82,14.61l-2.92,23.82c-.45,3.15-1.79,8.21-5.84,8.76,2.13.11,2.24,5.63,2.03,8.76l-3.48,46.31h-20.24l3.37-46.08h-10c3.15,0,8.87.45,8.32,5.05l-5.05,41.03h0ZM573.13,496.75c-.11.79.34,1.34,1.13,1.34s1.58-.56,1.68-1.34l2.03-16.4c0-.79-.45-1.34-1.24-1.34s-1.58.56-1.58,1.34l-2.03,16.4Z"/>
      <path class="cls-1" d="M677.43,563.28h-26.19l5.39-84.29h-1.92l-10.56,84.29h-20.24l12.82-102.27h39.11l-10.23,84.29h3.03l10.45-84.29h39.11l-12.37,102.27h-20.24l10.11-84.29h-1.92l-16.42,84.29h.05Z"/>
      <path class="cls-1" d="M744.3,461.01l-12.58,102.27h-20.24l12.58-102.27h20.24Z"/>
      <path class="cls-1" d="M765.77,478.99c3.15,0,8.87.45,8.32,5.05l-9.79,79.24h-20.24l10.34-84.29h-6.74l2.24-17.98h33.71l-2.24,17.98h-15.63.02Z"/>
    </g>
  </g>
</svg>