<?xml version="1.0" encoding="UTF-8"?>
<svg id="Ebene_2" data-name="Ebene 2" xmlns="http://www.w3.org/2000/svg" viewBox="0 0 3065.27 874.44">
  <defs>
    <style>
      .cls-1 {
        fill: #00390e;
      }

      .cls-2 {
        fill: #4ade80;
      }
    </style>
  </defs>
  <g id="Ebene_2-2" data-name="Ebene 2">
    <g id="Ebene_1-2" data-name="Ebene 1-2">
      <g>
        <path class="cls-2" d="M823.4,822.52c-25.92,31.94-66.89,51.49-108.21,51.92H135.52C60.08,870.98,4.79,812.38.41,737.81l-.09-576.84,1.37-5.56c35.98-23.28,74.69-43.06,116.26-54.28,26.27-7.09,59.86-14.27,86.9-15.7,15.23-.81,43.25,2.82,56.25-.59,5.96-1.57,29.15-19.41,36.97-24.04,22.3-13.2,71.87-37.73,96.78-40.48,6.95-.77,15.08.43,22.25.06,44.29-2.24,95.73-3.77,140.03-1.5,45.4,2.32,111.72,28,154.9,44.75,56.2,21.8,125.7,43.16,142.51,108.44l-.02,569.97c-1.53,30.02-12.34,57.34-31.13,80.49h.01ZM532.81,78.54c-1.29-1.11,7.77-28.7,6.24-33.26l-14.9,32.92c-3.68,4.28-52.46,2.82-61.42,3.06-26.15.7-52.66,2.52-79.03,1.39l-21.43,2.82c19.16.36,38.41-.42,57.59-.04,48.39.94,97.02,4.8,145.51,1.43,17.09-1.19,33.74-6.14,47.84-15.94l-35.37,6.23-45.04,1.39h0ZM618.76,67.47c-1.95-1-3.7.88-2.76,1.36,1.95,1,3.7-.88,2.76-1.36ZM269.37,163.12c3.73-3.63-16.79-23.52-20.14-26.29-23.15-19.13-49.44-24.22-79.05-22.29-21.17,1.38-33.45,11.37-50.53,22.28-.12,1.97-.69,3.32,1.91,2.61,7.48-2.06,16.06-7.95,24.12-10.56,35.88-11.6,67.19-4.96,96.62,17.67,4.97,3.82,10.57,11.38,16.1,14.4,2.06,1.13,9.76,3.36,10.97,2.19h0ZM506.46,161.74h117.16c3.33,0,24.24-20.11,30.23-23.84,27.77-17.27,64.18-18.54,94.19-6.31,8.12,3.31,15.78,9.85,23.94,13.48-11-19.74-39.23-29.25-60.95-30.54-26.49-1.58-44.91,1.4-66.94,16.38-5.73,3.9-19.42,18.53-23.53,19.45-13.79,3.1-32.44,1.28-46.84,3.07l-67.26,8.31h0ZM257.7,191.43c-61.27-51.73-116.01-41.45-133.53,40.71-2.95,144.56-2.93,290.03,0,434.59,19.5,72.36,64.64,89.85,122.36,38.55,43.32-38.51,80.89-86.43,124.11-125.49,5.6-7.59,12.59-10,8.56-21.13-24.68-37.54-46.34-77-68.5-115.89-6.02-10.57-15.08-19.27-21.64-31.04-1.42-2.55-4.87-7.21-3.73-10.14l141.96,136.72c63.53,59.44,122.7,125.29,191.05,179.14,51.58,29.87,98.75,19.24,112.38-42.37,3.02-153,2.61-306.79.21-459.82-20.79-73.47-78.2-63.69-126.76-21.67-37.87,41.45-82.82,79.61-119.96,121.33-3.93,4.41-10.86,10.32-9.38,16.32,21.45,35.63,43.37,71.16,65.71,106.29,9,14.16,21.2,29.07,28.07,44.03.59,1.28,3.01,3.58.92,4.63-14.17-10.94-25.99-24.92-38.8-37.4-93.7-80.63-178.99-177.96-273.03-257.36h0Z"/>
        <path class="cls-2" d="M349.78,3.68c.7,3.91-.92,2.28-3.04,3.12-13.29,5.25-26.42,11.08-38.99,17.92-10.97,5.97-42.54,29.19-50.5,31.3-8.22,2.18-25.88-.28-35.7.35-67.72,4.33-142.96,25.67-198.86,64.58-5.79,4.03-12.45,11.29-17.38,14.5-1.23.8-4.08,2.17-4.91,1.31-2.17-2.25,5.04-32.14,6.56-37.1C25.51,39.03,79.39,5.23,141.07,2.23c58.06-2.82,133.51-3.11,191.45,0,5.61.3,11.29,2.47,17.27,1.45h-.01Z"/>
        <path class="cls-2" d="M823.97,54.98h-40.9c-8.8,0-66.08-24.8-80.02-29.51-21.89-7.4-44.92-15.07-67.65-19.02-.19-3.29-.44-2.44,2.07-2.76,22.94-2.89,57.15-2.79,80.49-1.46,40.57,2.31,81.65,19.71,106,52.75h.01Z"/>
        <path class="cls-2" d="M850.3,104.88c-1.98,2.46-3.07-1.86-3.59-2.6-1.8-2.56-8.56-12.89-6.1-15.41,4.51-4.63,10.39,17.14,9.69,18.01Z"/>
      </g>
    </g>
    <g>
      <path class="cls-1" d="M1111.31,471.71c17.56,0,49.54,2.51,46.4,28.22l-27.59,222.61h-112.87l70.23-570.64h150.5l-12.54,100.33h-37.62l-13.17,106.6h25.08l-13.79,112.87h-74.62Z"/>
      <path class="cls-1" d="M1293.16,722.54h-112.87l82.77-570.64h235.15l-63.96,570.64h-112.87l28.22-250.83h-72.11c17.56,0,53.93,2.51,50.17,28.22l-34.49,222.61ZM1360.26,371.38l13.79-119.14h-12.54l-18.81,119.14h17.56Z"/>
      <path class="cls-1" d="M1553.4,471.71c17.56,0,49.54,2.51,46.4,28.22l-27.59,222.61h-112.87l70.23-570.64h112.87l-26.96,219.48h15.68l26.96-219.48h112.87l-70.23,570.64h-112.87l30.73-250.83h-65.22Z"/>
      <path class="cls-1" d="M1844.99,722.54h-112.87l70.23-570.64h159.9c48.91,0,77.13,32.61,71.49,81.52l-16.3,132.94c-2.51,17.56-10.03,45.78-32.61,48.91,11.92.63,12.54,31.35,11.29,48.91l-19.44,258.36h-112.87l18.81-257.1h-55.81c17.56,0,49.54,2.51,46.4,28.22l-28.22,228.88ZM1890.76,351.31c-.63,4.39,1.88,7.52,6.27,7.52,5.02,0,8.78-3.14,9.41-7.52l11.29-91.55c0-4.39-2.51-7.53-6.9-7.53-5.02,0-8.78,3.14-8.78,7.53l-11.29,91.55Z"/>
      <path class="cls-1" d="M2472.69,722.54h-146.11l30.1-470.31h-10.66l-58.95,470.31h-112.87l71.49-570.64h218.22l-57.06,470.31h16.93l58.32-470.31h218.22l-68.98,570.64h-112.87l56.44-470.31h-10.66l-91.55,470.31Z"/>
      <path class="cls-1" d="M2845.8,151.9l-70.23,570.64h-112.87l70.23-570.64h112.87Z"/>
      <path class="cls-1" d="M2965.56,252.23c17.56,0,49.54,2.51,46.4,28.22l-54.56,442.09h-112.87l57.69-470.31h-37.62l12.54-100.33h188.12l-12.54,100.33h-87.16Z"/>
    </g>
  </g>
</svg>